Coordinates
version=1
nRows=19
nColumns=63
inDegrees=yes

Units are S.I. units (second, meters, Newtons, ...)
If the header above contains a line with 'inDegrees', this indicates whether rotational values are in degrees (yes) or radians (no).

endheader
time	pelvis_tilt	pelvis_list	pelvis_rotation	pelvis_tx	pelvis_ty	pelvis_tz	hip_flexion_r	hip_adduction_r	hip_rotation_r	knee_angle_r	knee_angle_r_beta	ankle_angle_r	subtalar_angle_r	mtp_angle_r	hip_flexion_l	hip_adduction_l	hip_rotation_l	knee_angle_l	knee_angle_l_beta	ankle_angle_l	subtalar_angle_l	mtp_angle_l	L5_S1_Flex_Ext	L5_S1_Lat_Bending	L5_S1_axial_rotation	L4_L5_Flex_Ext	L4_L5_Lat_Bending	L4_L5_axial_rotation	L3_L4_Flex_Ext	L3_L4_Lat_Bending	L3_L4_axial_rotation	L2_L3_Flex_Ext	L2_L3_Lat_Bending	L2_L3_axial_rotation	L1_L2_Flex_Ext	L1_L2_Lat_Bending	L1_L2_axial_rotation	L1_T12_Flex_Ext	L1_T12_Lat_Bending	L1_T12_axial_rotation	Abs_r3	Abs_r2	Abs_r1	Abs_t1	Abs_t2	neck_flexion	neck_bending	neck_rotation	arm_flex_r	arm_add_r	arm_rot_r	elbow_flex_r	pro_sup_r	wrist_flex_r	wrist_dev_r	arm_flex_l	arm_add_l	arm_rot_l	elbow_flex_l	pro_sup_l	wrist_flex_l	wrist_dev_l
6.576271	8.102003	0.123089	96.283755	0.282909	1.156064	0.180235	-5.376977	5.843722	-13.759010	11.908673	0.207846	29.150694	-2.225967	0.000000	-8.443608	-11.215367	-6.027101	10.301975	0.179803	35.741122	7.793176	0.000000	0.495090	0.806836	-0.782792	0.919432	1.073091	-0.831716	0.813384	1.961740	-0.831716	0.565839	1.961740	-0.684943	0.459741	1.645299	-0.636018	0.282895	1.249788	-0.587094	3.536381	9.127087	-4.353653	0.000000	0.000000	28.378097	-1.534332	12.430222	149.836509	-41.895896	109.776988	44.658912	81.606043	-12.016917	13.134895	156.157869	-29.109026	114.888913	45.216806	52.297012	-5.644410	7.555804
6.593220	8.370022	0.165842	96.117285	0.282844	1.156682	0.179095	-5.335343	6.073417	-14.145163	12.088041	0.210976	28.993867	-1.962698	0.000000	-8.574516	-11.440676	-6.097672	10.170266	0.177505	35.857212	7.845387	0.000000	0.485860	0.857803	-0.871694	0.902291	1.140878	-0.926175	0.798220	2.085663	-0.926175	0.555290	2.085663	-0.762732	0.451170	1.749232	-0.708252	0.277621	1.328737	-0.653771	3.470451	9.703641	-4.848102	0.000000	0.000000	28.422547	-1.198920	13.876922	149.945980	-41.094840	110.250158	45.147756	81.333191	-11.966086	12.877370	157.089052	-28.871777	115.002131	44.097356	50.887799	-5.517112	6.350814
6.610169	8.606078	0.201830	95.868097	0.282902	1.157213	0.178001	-5.285320	6.243126	-14.572667	12.307746	0.214811	28.864434	-1.551057	0.000000	-8.719192	-11.617220	-6.182741	10.035928	0.175160	35.981525	7.817039	0.000000	0.472183	0.914324	-0.993138	0.876891	1.216051	-1.055209	0.775749	2.223087	-1.055209	0.539658	2.223087	-0.868996	0.438469	1.864489	-0.806925	0.269805	1.416288	-0.744853	3.372756	10.343014	-5.523535	0.000000	0.000000	28.577747	-0.746008	15.412948	149.772441	-40.117653	110.047566	46.096583	81.351241	-11.767215	12.661997	158.124964	-29.233525	115.954528	42.470785	49.488483	-5.605182	5.096681
6.627119	8.772801	0.246713	95.536701	0.283223	1.157606	0.177060	-5.230357	6.329585	-14.962722	12.582276	0.219602	28.781109	-1.111765	0.000000	-8.882201	-11.720142	-6.329748	9.922791	0.173185	36.118259	7.759367	0.000000	0.451793	0.969852	-1.136293	0.839025	1.289903	-1.207312	0.742251	2.358097	-1.207312	0.516354	2.358097	-0.994257	0.419535	1.977721	-0.923238	0.258155	1.502300	-0.852220	3.227114	10.971155	-6.319724	0.000000	0.000000	28.849533	-0.259519	16.990273	149.221221	-39.050409	109.006420	47.547494	81.652516	-11.417912	12.512675	159.009482	-30.147260	118.422443	40.083350	47.703405	-5.467143	3.972501
6.644068	8.817640	0.347010	95.136016	0.283962	1.157796	0.176358	-5.197283	6.294903	-15.253635	12.948706	0.225998	28.785429	-0.757793	0.000000	-9.103747	-11.711758	-6.523850	9.843518	0.171802	36.260952	7.671710	0.000000	0.420487	1.013776	-1.270411	0.780886	1.348322	-1.349812	0.690817	2.464894	-1.349812	0.480574	2.464894	-1.111610	0.390464	2.067291	-1.032209	0.240266	1.570339	-0.952808	3.003494	11.468033	-7.065646	0.000000	0.000000	29.124940	0.178104	18.384145	148.393072	-38.091107	107.272809	49.544056	82.191773	-10.935575	12.421256	159.568356	-31.445123	121.134366	37.005926	45.562894	-3.951616	2.061320
6.661017	8.752265	0.505241	94.685952	0.285077	1.157785	0.175900	-5.184805	6.153037	-15.433992	13.407000	0.233996	28.873721	-0.531893	0.000000	-9.381247	-11.608302	-6.762476	9.806644	0.171158	36.392324	7.570833	0.000000	0.380500	1.044536	-1.375669	0.706626	1.389233	-1.461648	0.625123	2.539686	-1.461648	0.434873	2.539686	-1.203710	0.353332	2.130019	-1.117731	0.217418	1.617987	-1.031752	2.717871	11.816004	-7.651059	0.000000	0.000000	29.276988	0.494600	19.469896	147.372096	-37.408040	104.933215	52.108821	82.796680	-10.170322	12.405957	159.535911	-32.859746	124.723789	33.339140	43.205900	-2.780342	-0.051066
6.677966	8.593922	0.714896	94.179279	0.286510	1.157546	0.175630	-5.180063	5.923284	-15.413558	13.961412	0.243673	29.039593	-0.535591	0.000000	-9.715967	-11.421777	-7.042043	9.810136	0.171219	36.509389	7.454800	0.000000	0.333465	1.061162	-1.436723	0.619278	1.411345	-1.526518	0.547850	2.580109	-1.526518	0.381118	2.580109	-1.257132	0.309656	2.163921	-1.167337	0.190542	1.643740	-1.077542	2.381909	12.004075	-7.990620	0.000000	0.000000	29.217426	0.652567	20.121737	146.320814	-37.118782	102.280820	55.202137	83.010917	-9.181674	12.366511	158.857970	-34.125205	129.953047	29.203761	40.291542	-2.723164	-1.609038
6.694915	8.356438	0.976322	93.646252	0.288187	1.157083	0.175482	-5.189201	5.619314	-15.230937	14.598928	0.254799	29.300881	-0.717194	0.000000	-10.099797	-11.168576	-7.307789	9.858013	0.172055	36.609995	7.292535	0.000000	0.281045	1.062856	-1.448091	0.521929	1.413598	-1.538597	0.461729	2.584228	-1.538597	0.321206	2.584228	-1.267080	0.260978	2.167376	-1.176574	0.160589	1.646364	-1.086068	2.007477	12.023239	-8.053847	0.000000	0.000000	28.856878	0.676682	20.346563	145.346976	-37.326497	99.490220	58.762372	82.734139	-7.956324	12.267574	157.522160	-35.069167	136.830393	24.799077	36.723499	-4.004163	-2.467953
6.711864	8.052398	1.294025	93.105329	0.290042	1.156427	0.175406	-5.217600	5.254946	-14.891623	15.310362	0.267216	29.669254	-1.048443	0.000000	-10.527299	-10.865522	-7.564247	9.951616	0.173688	36.715280	7.127390	0.000000	0.224113	1.049478	-1.396971	0.416200	1.395806	-1.484282	0.368195	2.551702	-1.484282	0.256139	2.551702	-1.222350	0.208111	2.140097	-1.135039	0.128058	1.625642	-1.047728	1.600817	11.871910	-7.769535	0.000000	0.000000	28.126910	0.597121	20.139618	144.799784	-38.120286	97.016658	62.748275	82.217029	-6.647203	12.069570	155.500648	-35.562194	144.968490	20.338765	32.770906	-6.590982	-2.661693
6.728814	7.680777	1.664791	92.578811	0.292026	1.155613	0.175356	-5.263043	4.823111	-14.451105	16.090829	0.280838	30.176532	-1.432178	0.000000	-10.982122	-10.514477	-7.769554	10.089396	0.176093	36.846502	6.955502	0.000000	0.164615	1.019539	-1.279096	0.305707	1.355987	-1.359039	0.270446	2.478908	-1.359039	0.188139	2.478908	-1.119209	0.152862	2.079045	-1.039265	0.094061	1.579267	-0.959322	1.175831	11.533234	-7.113946	0.000000	0.000000	26.981943	0.412554	19.429552	144.940095	-39.544105	95.285579	67.092384	81.768019	-5.464141	11.823768	152.850236	-35.510414	154.158437	15.995768	28.244185	-10.368951	-2.503134
6.745763	7.260493	2.095975	92.050891	0.294116	1.154735	0.175296	-5.327225	4.342800	-13.891716	16.934375	0.295561	30.833987	-1.832088	0.000000	-11.473901	-10.126817	-7.939479	10.252828	0.178946	37.026215	6.807593	0.000000	0.101013	0.976018	-1.096672	0.187591	1.298104	-1.165214	0.165954	2.373090	-1.165214	0.115448	2.373090	-0.959588	0.093801	1.990296	-0.891046	0.057719	1.511852	-0.822504	0.721526	11.040909	-6.099363	0.000000	0.000000	25.422909	0.135107	18.324173	145.896569	-41.558629	94.466759	71.671535	81.507915	-4.455425	11.643428	149.606550	-34.949220	164.209885	11.991482	23.622233	-15.220952	-1.605399
6.762712	6.820286	2.561382	91.538063	0.296175	1.153844	0.175179	-5.391887	3.832227	-13.297123	17.809681	0.310838	31.653700	-2.115738	0.000000	-11.962432	-9.727921	-8.055359	10.441815	0.182244	37.282648	6.711903	0.000000	0.038839	0.925203	-0.852390	0.072128	1.230520	-0.905664	0.063809	2.249539	-0.905664	0.044389	2.249539	-0.745841	0.036066	1.886674	-0.692567	0.022193	1.433140	-0.639292	0.277424	10.466082	-4.740736	0.000000	0.000000	23.455865	-0.331370	17.000724	147.727496	-44.113482	94.829292	76.400768	81.632740	-3.796744	11.736447	145.693025	-33.934184	174.479923	8.400098	18.979533	-20.906825	-0.049307
6.779661	6.372815	3.044451	91.031011	0.298156	1.153023	0.174972	-5.438133	3.297121	-12.701534	18.710375	0.326558	32.635570	-2.215976	0.000000	-12.429326	-9.324736	-8.127221	10.652020	0.185913	37.622173	6.678626	0.000000	-0.019515	0.870363	-0.563542	-0.036242	1.157582	-0.598763	-0.032062	2.116200	-0.598763	-0.022304	2.116200	-0.493099	-0.018122	1.774844	-0.457878	-0.011151	1.348192	-0.422656	-0.139396	9.845716	-3.134251	0.000000	0.000000	21.096821	-1.023576	15.599611	150.140581	-47.119932	96.142582	81.119730	82.000717	-3.413440	12.209556	141.148007	-32.584422	184.358949	5.354944	14.439700	-27.226422	2.153397
6.796610	5.933088	3.532582	90.531009	0.300032	1.152336	0.174686	-5.449560	2.749478	-12.149635	19.631500	0.342634	33.751912	-2.093192	0.000000	-12.857205	-8.932998	-8.185063	10.883922	0.189960	38.048096	6.731696	0.000000	-0.072269	0.815377	-0.242908	-0.134212	1.084451	-0.258090	-0.118732	1.982507	-0.258090	-0.082597	1.982507	-0.212545	-0.067109	1.662716	-0.197363	-0.041295	1.263019	-0.182181	-0.516214	9.223705	-1.350984	0.000000	0.000000	18.365070	-1.924623	14.313437	153.063902	-50.511780	98.398979	85.722001	82.503172	-3.275691	13.089435	136.024265	-31.031914	192.792804	2.921332	10.103589	-33.586559	4.481043
6.813559	5.511345	4.009182	90.036690	0.301809	1.151810	0.174340	-5.401703	2.196783	-11.670265	20.581182	0.359209	34.957614	-1.751181	0.000000	-13.229038	-8.561920	-8.229971	11.133601	0.194318	38.547391	6.844428	0.000000	-0.117363	0.762380	0.089474	-0.217956	1.013965	0.095066	-0.192816	1.853650	0.095066	-0.134135	1.853650	0.078290	-0.108984	1.554645	0.072698	-0.067061	1.180926	0.067106	-0.838316	8.624193	0.497628	0.000000	0.000000	15.300416	-3.048479	13.235355	156.147057	-54.199406	101.278936	90.096888	83.079820	-3.347798	14.286879	130.374686	-29.483978	198.857176	1.118147	6.129239	-39.228808	6.631127
6.830508	5.113951	4.458170	89.554881	0.303454	1.151447	0.173957	-5.284710	1.637031	-11.352312	21.552385	0.376160	36.211915	-1.118269	0.000000	-13.522338	-8.223141	-8.323924	11.414385	0.199219	39.120433	7.069633	0.000000	-0.156508	0.715972	0.395231	-0.290651	0.952242	0.419932	-0.257127	1.740813	0.419932	-0.178873	1.740813	0.345827	-0.145333	1.460009	0.321125	-0.089429	1.109040	0.296423	-1.117922	8.099213	2.198154	0.000000	0.000000	11.971858	-4.151047	12.959686	159.109807	-57.970289	104.454581	94.109756	83.493679	-3.423334	15.609154	124.314633	-28.291385	202.118102	-0.027825	2.897567	-43.539683	8.354941
6.847458	4.753706	4.864492	89.084792	0.304963	1.151224	0.173527	-5.095904	1.081605	-11.215912	22.535480	0.393318	37.448483	-0.222891	0.000000	-13.731020	-7.927071	-8.458698	11.720015	0.204553	39.746030	7.359328	0.000000	-0.188642	0.677067	0.650998	-0.350328	0.900500	0.691685	-0.309921	1.646222	0.691685	-0.215599	1.646222	0.569623	-0.175173	1.380676	0.528936	-0.107790	1.048777	0.488248	-1.347454	7.659122	3.620654	0.000000	0.000000	8.483438	-5.220194	13.409369	161.883246	-61.755395	107.830934	97.708492	83.702408	-3.474947	16.865942	117.823985	-27.634355	202.314033	-0.609206	0.695589	-46.371907	9.533913
6.864407	4.436063	5.216588	88.646316	0.306311	1.151086	0.173037	-4.840690	0.538546	-11.283795	23.520548	0.410511	38.608452	0.903247	0.000000	-13.843658	-7.680590	-8.607648	12.054872	0.210397	40.412129	7.676780	0.000000	-0.213378	0.645782	0.831808	-0.396265	0.858890	0.883796	-0.350559	1.570154	0.883796	-0.243870	1.570154	0.727832	-0.198143	1.316878	0.675844	-0.121924	1.000316	0.623856	-1.524140	7.305213	4.626268	0.000000	0.000000	4.965273	-6.210162	14.508004	163.807163	-65.512398	110.713830	100.852722	83.709835	-3.442614	17.902593	110.981355	-27.646465	199.596034	-0.747286	-0.175110	-47.738308	10.089870
6.881356	4.184669	5.502283	88.249461	0.307457	1.150985	0.172492	-4.522513	0.036501	-11.534450	24.495523	0.427528	39.631988	2.195392	0.000000	-13.853209	-7.507814	-8.768438	12.420316	0.216775	41.105391	8.014288	0.000000	-0.231023	0.625092	0.927067	-0.429033	0.831373	0.985009	-0.379547	1.519849	0.985009	-0.264036	1.519849	0.811184	-0.214528	1.274688	0.753242	-0.132006	0.968268	0.695300	-1.650173	7.071169	5.156068	0.000000	0.000000	1.570743	-7.125009	16.163367	163.494333	-69.153339	111.749582	103.569569	83.569759	-3.452094	18.595987	103.848097	-28.408027	194.011709	-0.555383	0.291656	-47.739696	10.049401
